<svg xmlns="http://www.w3.org/2000/svg" viewBox="0 0 100 100" width="100" height="100">
  <rect width="100" height="100" rx="22" fill="#14161B"/>
  <g transform="translate(50,50) scale(0.82) translate(-50,-50)">
    <polygon points="70.09,20.28 79.72,20.28 79.72,60.47 83.92,56.27 83.92,16.08 65.89,16.08" fill="#F4F4F2"/>
    <polygon points="79.72,70.09 79.72,79.72 39.53,79.72 43.73,83.92 83.92,83.92 83.92,65.89" fill="#F4F4F2"/>
    <polygon points="29.91,79.72 20.28,79.72 20.28,39.53 16.08,43.73 16.08,83.92 34.11,83.92" fill="#F4F4F2"/>
    <polygon points="20.28,29.91 20.28,20.28 60.47,20.28 56.27,16.08 16.08,16.08 16.08,34.11" fill="#F4F4F2"/>
    <polygon points="85.22,43.19 92.03,50.00 63.61,78.42 69.55,78.42 97.97,50.00 85.22,37.25" fill="#7B87FF"/>
    <polygon points="56.81,85.22 50.00,92.03 21.58,63.61 21.58,69.55 50.00,97.97 62.75,85.22" fill="#7B87FF"/>
    <polygon points="14.78,56.81 7.97,50.00 36.39,21.58 30.45,21.58 2.03,50.00 14.78,62.75" fill="#7B87FF"/>
    <polygon points="43.19,14.78 50.00,7.97 78.42,36.39 78.42,30.45 50.00,2.03 37.25,14.78" fill="#7B87FF"/>
  </g>
</svg>
