<?xml version="1.0"?>
<svg xmlns="http://www.w3.org/2000/svg" viewBox="0 0 300 176" width="300" height="176">
<rect width="300" height="176" fill="#14161B"></rect>
<g transform="translate(26,26) scale(0.46)">
<g><polygon points="70.09,20.28 79.72,20.28 79.72,60.47 83.92,56.27 83.92,16.08 65.89,16.08" fill="#F4F4F2"></polygon>
<polygon points="79.72,70.09 79.72,79.72 39.53,79.72 43.73,83.92 83.92,83.92 83.92,65.89" fill="#F4F4F2"></polygon>
<polygon points="29.91,79.72 20.28,79.72 20.28,39.53 16.08,43.73 16.08,83.92 34.11,83.92" fill="#F4F4F2"></polygon>
<polygon points="20.28,29.91 20.28,20.28 60.47,20.28 56.27,16.08 16.08,16.08 16.08,34.11" fill="#F4F4F2"></polygon></g>
<g><polygon points="85.22,43.19 92.03,50.00 63.61,78.42 69.55,78.42 97.97,50.00 85.22,37.25" fill="#7B87FF"></polygon>
<polygon points="56.81,85.22 50.00,92.03 21.58,63.61 21.58,69.55 50.00,97.97 62.75,85.22" fill="#7B87FF"></polygon>
<polygon points="14.78,56.81 7.97,50.00 36.39,21.58 30.45,21.58 2.03,50.00 14.78,62.75" fill="#7B87FF"></polygon>
<polygon points="43.19,14.78 50.00,7.97 78.42,36.39 78.42,30.45 50.00,2.03 37.25,14.78" fill="#7B87FF"></polygon></g>
</g>
<text x="26" y="120" font-family="Sora, Helvetica, Arial, sans-serif" font-size="15" font-weight="600" fill="#F4F4F2">하용욱 · YongWook Ha</text>
<text x="26" y="139" font-family="Sora, Helvetica, Arial, sans-serif" font-size="12" fill="#9A9CA4">Founder</text>
<text x="26" y="160" font-family="&#39;Space Mono&#39;, monospace" font-size="11" fill="#7B87FF">ceo@stella-dev.org</text>
</svg>